HIERARCHY
ROOT Hips
{
  OFFSET 5.84602e-005 68.8428 3.50346
  CHANNELS 6 Xposition Yposition Zposition Zrotation Xrotation Yrotation
  JOINT Spine
  {
    OFFSET 0 8.597 -4.6522
    CHANNELS 3 Zrotation Xrotation Yrotation
    JOINT Spine1
    {
      OFFSET 0 7.8454 0.4098
      CHANNELS 3 Zrotation Xrotation Yrotation
      JOINT Spine2
      {
        OFFSET 0 9.7078 -2.1609
        CHANNELS 3 Zrotation Xrotation Yrotation
        JOINT Neck
        {
          OFFSET 0 21.8761 -0.4549
          CHANNELS 3 Zrotation Xrotation Yrotation
          JOINT Head
          {
            OFFSET 0 12.3537 3.3602
            CHANNELS 3 Zrotation Xrotation Yrotation
            End Site
            {
              OFFSET 0.0001 18.9506 0.5657
            }
          }
        }
        JOINT LeftShoulder
        {
          OFFSET 2.2086 21.1115 7.2329
          CHANNELS 3 Zrotation Xrotation Yrotation
          JOINT LeftArm
          {
            OFFSET 13.1193 3.0282 -4.8998
            CHANNELS 3 Zrotation Xrotation Yrotation
            JOINT LeftForeArm
            {
              OFFSET 27.4081 -0.0973053 -0.2375
              CHANNELS 3 Zrotation Xrotation Yrotation
              JOINT LeftHand
              {
                OFFSET 22.8641 0.0662994 -0.1369
                CHANNELS 3 Zrotation Xrotation Yrotation
                JOINT LeftHandIndex1
                {
                  OFFSET 8.8614 0.775009 2.4612
                  CHANNELS 3 Zrotation Xrotation Yrotation
                  JOINT LeftHandIndex2
                  {
                    OFFSET 3.3146 -0.808304 0.5841
                    CHANNELS 3 Zrotation Xrotation Yrotation
                    JOINT LeftHandIndex3
                    {
                      OFFSET 2.2628 -0.552002 0.3989
                      CHANNELS 3 Zrotation Xrotation Yrotation
                      End Site
                      {
                        OFFSET 1.6102 -0.4807 0.2612
                      }
                    }
                  }
                }
                JOINT LeftHandMiddle1
                {
                  OFFSET 8.9937 0.895004 0.2143
                  CHANNELS 3 Zrotation Xrotation Yrotation
                  JOINT LeftHandMiddle2
                  {
                    OFFSET 4.0984 0.0113983 -0.0242
                    CHANNELS 3 Zrotation Xrotation Yrotation
                    JOINT LeftHandMiddle3
                    {
                      OFFSET 2.2716 0.00689697 -0.0138001
                      CHANNELS 3 Zrotation Xrotation Yrotation
                      End Site
                      {
                        OFFSET 2.0404 -0.1441 0.0027
                      }
                    }
                  }
                }
                JOINT LeftHandRing1
                {
                  OFFSET 8.5234 0.597198 -2.0164
                  CHANNELS 3 Zrotation Xrotation Yrotation
                  JOINT LeftHandRing2
                  {
                    OFFSET 3.7188 -0.188293 -0.2328
                    CHANNELS 3 Zrotation Xrotation Yrotation
                    JOINT LeftHandRing3
                    {
                      OFFSET 2.1191 -0.106598 -0.1332
                      CHANNELS 3 Zrotation Xrotation Yrotation
                      End Site
                      {
                        OFFSET 1.8737 -0.2304 -0.0886
                      }
                    }
                  }
                }
                JOINT LeftHandPinky1
                {
                  OFFSET 7.9094 -0.601089 -3.4825
                  CHANNELS 3 Zrotation Xrotation Yrotation
                  JOINT LeftHandPinky2
                  {
                    OFFSET 2.2874 -0.477005 -0.6314
                    CHANNELS 3 Zrotation Xrotation Yrotation
                    JOINT LeftHandPinky3
                    {
                      OFFSET 1.6774 -0.349396 -0.4633
                      CHANNELS 3 Zrotation Xrotation Yrotation
                      End Site
                      {
                        OFFSET 1.4888 -0.4091 -0.3416
                      }
                    }
                  }
                }
                JOINT LeftHandThumb1
                {
                  OFFSET 1.833 -1.3875 1.3896
                  CHANNELS 3 Zrotation Xrotation Yrotation
                  JOINT LeftHandThumb2
                  {
                    OFFSET 3.4129 -1.121 2.5732
                    CHANNELS 3 Zrotation Xrotation Yrotation
                    JOINT LeftHandThumb3
                    {
                      OFFSET 2.2474 -0.804199 1.6192
                      CHANNELS 3 Zrotation Xrotation Yrotation
                      End Site
                      {
                        OFFSET 1.6527 -0.5689 1.1317
                      }
                    }
                  }
                }
              }
            }
          }
        }
        JOINT RightShoulder
        {
          OFFSET -2.2086 21.1115 7.2329
          CHANNELS 3 Zrotation Xrotation Yrotation
          JOINT RightArm
          {
            OFFSET -13.1216 3.0287 -4.9007
            CHANNELS 3 Zrotation Xrotation Yrotation
            JOINT RightForeArm
            {
              OFFSET -27.4081 -0.0973053 -0.2375
              CHANNELS 3 Zrotation Xrotation Yrotation
              JOINT RightHand
              {
                OFFSET -22.8641 0.0664063 -0.1369
                CHANNELS 3 Zrotation Xrotation Yrotation
                JOINT RightHandIndex1
                {
                  OFFSET -8.8614 0.774994 2.4612
                  CHANNELS 3 Zrotation Xrotation Yrotation
                  JOINT RightHandIndex2
                  {
                    OFFSET -3.3146 -0.808304 0.5841
                    CHANNELS 3 Zrotation Xrotation Yrotation
                    JOINT RightHandIndex3
                    {
                      OFFSET -2.2628 -0.552002 0.3989
                      CHANNELS 3 Zrotation Xrotation Yrotation
                      End Site
                      {
                        OFFSET -1.6102 -0.4807 0.2612
                      }
                    }
                  }
                }
                JOINT RightHandMiddle1
                {
                  OFFSET -8.9937 0.894989 0.2143
                  CHANNELS 3 Zrotation Xrotation Yrotation
                  JOINT RightHandMiddle2
                  {
                    OFFSET -4.0984 0.0113983 -0.0242
                    CHANNELS 3 Zrotation Xrotation Yrotation
                    JOINT RightHandMiddle3
                    {
                      OFFSET -2.2716 0.00691223 -0.0138001
                      CHANNELS 3 Zrotation Xrotation Yrotation
                      End Site
                      {
                        OFFSET -2.0404 -0.1441 0.0027
                      }
                    }
                  }
                }
                JOINT RightHandRing1
                {
                  OFFSET -8.5234 0.597198 -2.0164
                  CHANNELS 3 Zrotation Xrotation Yrotation
                  JOINT RightHandRing2
                  {
                    OFFSET -3.7188 -0.188309 -0.2328
                    CHANNELS 3 Zrotation Xrotation Yrotation
                    JOINT RightHandRing3
                    {
                      OFFSET -2.1191 -0.106598 -0.1332
                      CHANNELS 3 Zrotation Xrotation Yrotation
                      End Site
                      {
                        OFFSET -1.8737 -0.2304 -0.0886
                      }
                    }
                  }
                }
                JOINT RightHandPinky1
                {
                  OFFSET -7.9094 -0.601105 -3.4825
                  CHANNELS 3 Zrotation Xrotation Yrotation
                  JOINT RightHandPinky2
                  {
                    OFFSET -2.2874 -0.477005 -0.6314
                    CHANNELS 3 Zrotation Xrotation Yrotation
                    JOINT RightHandPinky3
                    {
                      OFFSET -1.6774 -0.349396 -0.4633
                      CHANNELS 3 Zrotation Xrotation Yrotation
                      End Site
                      {
                        OFFSET -1.4888 -0.4091 -0.3416
                      }
                    }
                  }
                }
                JOINT RightHandThumb1
                {
                  OFFSET -1.833 -1.38751 1.3896
                  CHANNELS 3 Zrotation Xrotation Yrotation
                  JOINT RightHandThumb2
                  {
                    OFFSET -3.41299 -1.12099 2.5732
                    CHANNELS 3 Zrotation Xrotation Yrotation
                    JOINT RightHandThumb3
                    {
                      OFFSET -2.24741 -0.804108 1.6192
                      CHANNELS 3 Zrotation Xrotation Yrotation
                      End Site
                      {
                        OFFSET -1.6527 -0.5689 1.1317
                      }
                    }
                  }
                }
              }
            }
          }
        }
      }
    }
  }
  JOINT RightUpLeg
  {
    OFFSET -9.1966 3.8861 -0.7581
    CHANNELS 3 Zrotation Xrotation Yrotation
    JOINT RightLeg
    {
      OFFSET -0.7359 -41.0265 0
      CHANNELS 3 Zrotation Xrotation Yrotation
      JOINT RightFoot
      {
        OFFSET 0 -40.2855 0
        CHANNELS 3 Zrotation Xrotation Yrotation
        JOINT RightToeBase
        {
          OFFSET 0 -5.6122 11.7359
          CHANNELS 3 Zrotation Xrotation Yrotation
          End Site
          {
            OFFSET 0 0 7.8731
          }
        }
      }
    }
  }
  JOINT LeftUpLeg
  {
    OFFSET 9.1965 3.8864 -0.7581
    CHANNELS 3 Zrotation Xrotation Yrotation
    JOINT LeftLeg
    {
      OFFSET 0.7359 -41.0268 0
      CHANNELS 3 Zrotation Xrotation Yrotation
      JOINT LeftFoot
      {
        OFFSET 0 -40.2855 0
        CHANNELS 3 Zrotation Xrotation Yrotation
        JOINT LeftToeBase
        {
          OFFSET 0 -5.6122 11.7359
          CHANNELS 3 Zrotation Xrotation Yrotation
          End Site
          {
            OFFSET 0 0 7.8731
          }
        }
      }
    }
  }
}
MOTION
Frames:	4
Frame Time:	0.0333333
5.84602e-005 68.8428 3.50346 0 0 -0 0 0 -0 0 0 -0 0 0 -0 0 0 -0 0 0 -0 0 0 -0 0 0 -0 0 0 -0 0 0 -0 0 0 -0 0 0 -0 0 0 -0 0 0 -0 -0.0146107 -8.87603e-005 -2.63497e-007 2.99804e-018 -2.42657e-020 -1.42182e-022 0 0 -0 -0.0187562 -0.001176 5.858e-005 5.06224e-018 3.88251e-019 1.21329e-020 0 0 -0 -0.012269 -0.00324817 0.000675346 -1.74678e-018 3.88251e-019 -0 0 0 -0 0 0 -0 0 0 -0 0 0 -0 0 0 -0 0 0 -0 0 0 -0 0 0 -0 0 0 -0 0 0 -0 0 0 -0 0.0149955 -9.10982e-005 2.64101e-007 -9.69331e-018 1.21329e-020 -4.7394e-023 0 0 -0 0.0189956 -0.00119102 -5.96516e-005 -5.41541e-019 0 2.42657e-020 0 0 -0 0.0122698 -0.00324857 -0.000673756 -2.00796e-019 0 -1.94126e-019 0 0 -0 0 0 -0 0 0 -0 3.39842 1.33031 -0.0637918 -5.65207e-008 0.834868 -0.000436188 -3.39935 -2.16518 -0.0642563 -8.89002e-024 -1.18485e-023 -1.48106e-024 -3.39844 1.35642 0.0640283 -3.18788e-007 0.782166 -0.000588827 3.39931 -2.13858 0.0634662 1.1399e-023 0 -0 
1.62983 43.5795 0.508526 0 38.9981 -0 0.259336 -4.77614 -0.262189 0.499265 -9.55338 -0.505242 0.499265 -9.55337 -0.505242 -3.80969e-006 0.326964 4.16938e-006 0.148628 0.312991 -0.000404277 -20.1002 -4.27543 -23.4473 -57.6548 57.3274 22.2039 -2.32536 1.88689 -16.0242 28.8717 -7.36237 -36.3977 1.33643e-006 1.52868e-006 -7.23826e-007 6.36111e-015 -1.55052e-014 -4.96962e-015 -1.33643e-006 -1.52868e-006 7.23826e-007 1.33643e-006 1.52868e-006 -7.23826e-007 -0.0145902 -8.20843e-005 -2.14272e-006 1.33489e-006 1.52876e-006 -7.23632e-007 1.33643e-006 1.52868e-006 -7.23826e-007 -0.0188041 -0.00118015 6.43159e-005 6.36111e-015 -1.19271e-015 -3.18055e-015 1.33643e-006 1.52868e-006 -7.23826e-007 -0.0122763 -0.00325494 0.000673244 3.18055e-015 -2.78299e-015 -3.97569e-016 1.33643e-006 1.52868e-006 -7.23826e-007 6.36111e-015 -1.55052e-014 -4.96962e-015 -1.33643e-006 -1.52868e-006 7.23826e-007 14.4384 1.47747 -39.9513 91.9994 -0.00219743 76.9998 18.4592 46.6561 85.1596 39.4309 -35.4869 15.9252 1.04179e-006 4.56262e-006 -4.08218e-007 2.3178e-006 -4.80573e-006 -2.58502e-007 1.04179e-006 4.56262e-006 -4.08218e-007 1.04179e-006 4.56262e-006 -4.08218e-007 0.0149393 -9.30109e-005 -3.30874e-006 2.35317e-006 5.32756e-006 -6.27579e-007 1.04179e-006 4.56262e-006 -4.08218e-007 0.0189676 -0.00118776 -5.99558e-005 -8.24308e-007 3.16051e-006 1.35275e-007 1.04179e-006 4.56262e-006 -4.08218e-007 0.0121895 -0.00323229 -0.000671331 1.04028e-006 4.56298e-006 -4.08651e-007 1.04179e-006 4.56262e-006 -4.08218e-007 2.3178e-006 -4.80573e-006 -2.58502e-007 1.04179e-006 4.56262e-006 -4.08218e-007 -58.6738 -24.9088 -23.4827 -172.637 88.1958 170.749 54.0356 36.4366 -60.542 1.58307e-006 -4.30985e-006 4.88294e-006 58.6557 -24.9195 23.4554 173.15 88.1884 -171.277 -54.0672 36.4136 60.5493 -7.24091e-007 1.43121e-007 -2.2983e-006 
1.62983 43.3944 1.03784 0 37.564 -0 0.257287 -4.44412 -0.264283 0.496188 -8.88935 -0.510794 0.496188 -8.88935 -0.510794 8.1793e-007 0.491679 1.70851e-006 0.295385 0.623551 -0.0291936 -19.8223 -4.90579 -23.9215 -57.9308 57.2737 22.3009 -2.43906 1.90809 -16.5289 28.5882 -7.24152 -35.8713 -2.22639e-014 -3.97569e-016 1.19271e-015 -6.36111e-015 3.97569e-016 4.17448e-015 -9.54166e-015 -1.59028e-015 2.98177e-015 -2.22639e-014 -3.97569e-016 1.19271e-015 -0.0146047 -9.49713e-005 -1.14681e-006 3.18055e-015 1.19271e-015 -1.19271e-015 -2.22639e-014 -3.97569e-016 1.19271e-015 -0.0187419 -0.00118029 6.1533e-005 -9.54166e-015 -2.38542e-015 -2.5842e-015 -2.22639e-014 -3.97569e-016 1.19271e-015 -0.0122633 -0.00324299 0.000673705 6.89673e-033 -1.98785e-015 1.98785e-016 -2.22639e-014 -3.97569e-016 1.19271e-015 -6.36111e-015 3.97569e-016 4.17448e-015 -9.54166e-015 -1.59028e-015 2.98177e-015 14.1769 1.31647 -39.3231 91.9866 -0.31015 77.159 18.4316 46.4452 85.0919 39.1898 -35.5933 15.7357 2.11193e-007 -1.44682e-007 3.40766e-007 2.11193e-007 -1.44682e-007 3.40766e-007 -4.22385e-007 2.89365e-007 -6.81531e-007 2.11193e-007 -1.44682e-007 3.40766e-007 0.0149723 -8.6372e-005 4.6574e-008 -4.22392e-007 2.89276e-007 -6.81569e-007 2.11193e-007 -1.44682e-007 3.40766e-007 0.0189504 -0.00118491 -6.16741e-005 -4.224e-007 2.89252e-007 -6.81575e-007 2.11193e-007 -1.44682e-007 3.40766e-007 0.0122872 -0.00325535 -0.000677649 -4.22411e-007 2.89291e-007 -6.8155e-007 2.11193e-007 -1.44682e-007 3.40766e-007 2.11193e-007 -1.44682e-007 3.40766e-007 -4.22385e-007 2.89365e-007 -6.81531e-007 -58.6106 -23.1227 -23.1344 -170.242 88.7462 168.362 52.8768 37.0994 -59.8262 6.52077e-007 2.44133e-006 2.15794e-006 58.5978 -23.1286 23.1163 171.012 88.7409 -169.146 -52.8994 37.0829 59.8291 6.52196e-007 -2.44129e-006 2.15821e-006 
1.62985 43.2143 1.56842 0 36.1262 -0 0.255236 -4.11162 -0.266339 0.493163 -8.22437 -0.516261 0.493163 -8.22437 -0.51626 -4.94973e-006 0.656613 2.17812e-006 0.442396 0.934219 -0.0587978 -19.5491 -5.53903 -24.3936 -58.2062 57.2198 22.3973 -2.55264 1.93032 -17.0336 28.3035 -7.12318 -35.3442 3.18055e-015 -3.97569e-015 -6.16232e-015 -2.13799e-031 -1.98785e-015 -6.16232e-015 -2.89663e-032 2.78299e-015 5.96354e-016 3.18055e-015 -3.97569e-015 -6.16232e-015 -0.0145911 -8.74299e-005 -9.99414e-006 -1.27222e-014 1.19271e-015 5.56597e-015 3.18055e-015 -3.97569e-015 -6.16232e-015 -0.0187319 -0.00117562 5.36568e-005 6.36111e-015 -7.95139e-016 -4.96962e-015 3.18055e-015 -3.97569e-015 -6.16232e-015 -0.0122802 -0.00325409 0.000677784 3.18055e-015 -1.98785e-015 -7.15625e-015 3.18055e-015 -3.97569e-015 -6.16232e-015 -2.13799e-031 -1.98785e-015 -6.16232e-015 -2.89663e-032 2.78299e-015 5.96354e-016 13.9172 1.15247 -38.6954 91.9747 -0.618202 77.3184 18.4037 46.2342 85.0243 38.9479 -35.699 15.5453 -2.11243e-007 1.44609e-007 -3.4076e-007 2.96438e-006 2.31293e-006 -1.11067e-006 1.05622e-006 -7.23044e-007 1.7038e-006 -2.11243e-007 1.44609e-007 -3.4076e-007 0.0150618 -9.07582e-005 1.98027e-006 2.9184e-006 6.81334e-007 1.16895e-006 -2.11243e-007 1.44609e-007 -3.4076e-007 0.01904 -0.00118771 -5.88761e-005 1.05625e-006 -7.22762e-007 1.70391e-006 -2.11243e-007 1.44609e-007 -3.4076e-007 0.0122743 -0.00324836 -0.000675596 1.05628e-006 -7.22859e-007 1.70384e-006 -2.11243e-007 1.44609e-007 -3.4076e-007 2.96438e-006 2.31293e-006 -1.11067e-006 1.05622e-006 -7.23044e-007 1.7038e-006 -58.5588 -21.3349 -22.7915 -164.165 89.2904 162.292 51.6959 37.7505 -59.0861 7.83918e-007 -2.16152e-006 2.44087e-006 58.551 -21.3361 22.7823 165.58 89.288 -163.72 -51.7092 37.7402 59.0843 2.46841e-006 -1.63897e-006 7.98489e-006 
